<svg width="145" height="31" viewBox="0 0 145 31" fill="none" xmlns="http://www.w3.org/2000/svg">
<path d="M0.0260902 29.5352V28.7792L3.33809 28.2392V2.03115L0.0260902 1.52715V0.735156H10.6101V1.52715L7.29809 2.03115V28.6712H18.0621L21.0141 20.7512H21.9861V29.5352H0.0260902ZM39.1235 30.2552C36.5075 30.2552 34.1675 29.6192 32.1035 28.3472C30.0395 27.0752 28.4315 25.2992 27.2795 23.0192C26.1275 20.7152 25.5515 18.0872 25.5515 15.1352C25.5515 12.1832 26.1275 9.56716 27.2795 7.28716C28.4315 4.98315 30.0395 3.19515 32.1035 1.92316C34.1675 0.651155 36.5075 0.0151544 39.1235 0.0151544C41.7395 0.0151544 44.0795 0.651155 46.1435 1.92316C48.2075 3.19515 49.8155 4.98315 50.9675 7.28716C52.1195 9.56716 52.6955 12.1832 52.6955 15.1352C52.6955 18.0872 52.1195 20.7152 50.9675 23.0192C49.8155 25.2992 48.2075 27.0752 46.1435 28.3472C44.0795 29.6192 41.7395 30.2552 39.1235 30.2552ZM39.1235 29.4272C40.8515 29.4272 42.3995 28.9712 43.7675 28.0592C45.1595 27.1472 46.2515 25.8272 47.0435 24.0992C47.8355 22.3472 48.2315 20.2832 48.2315 17.9072V12.3632C48.2315 9.98716 47.8355 7.93516 47.0435 6.20716C46.2515 4.45516 45.1595 3.12316 43.7675 2.21115C42.3995 1.29915 40.8515 0.843154 39.1235 0.843154C37.3715 0.843154 35.8115 1.29915 34.4435 2.21115C33.0755 3.12316 31.9955 4.45516 31.2035 6.20716C30.4115 7.93516 30.0155 9.98716 30.0155 12.3632V17.9072C30.0155 20.2832 30.4115 22.3472 31.2035 24.0992C31.9955 25.8272 33.0755 27.1472 34.4435 28.0592C35.8115 28.9712 37.3715 29.4272 39.1235 29.4272ZM78.0865 29.8952C76.7425 29.8952 75.7345 29.5712 75.0625 28.9232C74.3905 28.2752 73.9345 27.1712 73.6945 25.6112L73.0105 20.7872C72.7705 19.1552 72.2065 17.8832 71.3185 16.9712C70.4545 16.0352 69.0985 15.5672 67.2505 15.5672H64.4425V28.2392L67.7545 28.7792V29.5352H57.1705V28.7792L60.4825 28.2392V2.03115L57.1705 1.52715V0.735156H67.2505C71.1625 0.735156 73.9945 1.34716 75.7465 2.57116C77.4985 3.79516 78.3745 5.65516 78.3745 8.15115C78.3745 12.2792 75.8785 14.6672 70.8865 15.3152V15.5312C72.7345 15.7952 74.2105 16.4552 75.3145 17.5112C76.4425 18.5672 77.1505 19.9712 77.4385 21.7232L77.9065 24.8192C78.0985 26.1632 78.3145 27.0752 78.5545 27.5552C78.8185 28.0352 79.2145 28.2752 79.7425 28.2752C80.1025 28.2752 80.4865 28.1672 80.8945 27.9512C81.3025 27.7112 81.6865 27.4112 82.0465 27.0512L82.6585 27.6992C81.9625 28.4912 81.2425 29.0552 80.4985 29.3912C79.7545 29.7272 78.9505 29.8952 78.0865 29.8952ZM68.4745 14.7032C70.2265 14.7032 71.5825 14.1752 72.5425 13.1192C73.5265 12.0392 74.0185 10.4552 74.0185 8.36716V7.61116C74.0185 3.62716 71.7625 1.63515 67.2505 1.63515H64.4425V14.7032H68.4745ZM84.4067 29.5352V28.7792L87.7187 28.2392V2.03115L84.4067 1.52715V0.735156H106.079V8.97915H105.107L102.335 1.63515H91.6787V14.5952H96.3587L98.4827 9.37516H99.4187V20.7512H98.4827L96.3227 15.4592H91.6787V28.6712H102.983L105.935 20.7512H106.871V29.5352H84.4067ZM126.408 29.8952L115.68 2.03115V27.3392L119.136 28.7792V29.5352H111.432V28.7792L114.816 27.3392V2.03115L111.504 1.52715V0.735156H119.46L128.496 23.8472L137.712 0.735156H144.984V1.52715L141.672 2.03115V28.2392L144.984 28.7792V29.5352H134.4V28.7792L137.712 28.2392V3.11116L127.056 29.8952H126.408Z" fill="white"/>
</svg>
